<?xml version="1.0" encoding="UTF-8" standalone="no"?>
<!DOCTYPE svg PUBLIC "-//W3C//DTD SVG 20010904//EN"
              "http://www.w3.org/TR/2001/REC-SVG-20010904/DTD/svg10.dtd">

<svg xmlns="http://www.w3.org/2000/svg"
     width="8.05556in" height="5.36111in"
     viewBox="0 0 580 386">
  <path id="body"
        fill="none" stroke="black" stroke-width="1"
        d="M 171.00,106.00
           C 171.00,106.00 246.00,106.00 246.00,106.00
             246.00,106.00 246.00,117.00 246.00,117.00
             246.00,117.00 287.00,117.00 287.00,117.00
             291.44,117.00 301.21,116.33 304.79,118.45
             309.36,121.16 308.99,126.40 309.00,131.00
             309.00,131.00 437.00,131.00 437.00,131.00
             437.00,131.00 437.00,134.00 437.00,134.00
             437.00,134.00 520.00,134.00 520.00,134.00
             520.00,134.00 520.00,147.00 520.00,147.00
             520.00,147.00 437.00,147.00 437.00,147.00
             437.00,147.00 437.00,150.00 437.00,150.00
             437.00,150.00 309.00,150.00 309.00,150.00
             309.00,150.00 309.00,160.00 309.00,160.00
             309.00,160.00 364.00,160.00 364.00,160.00
             371.87,160.02 376.79,162.34 378.00,171.00
             383.48,173.85 391.77,186.38 395.00,192.00
             395.00,192.00 388.00,192.00 388.00,192.00
             388.00,192.00 388.00,211.00 388.00,211.00
             388.00,211.00 74.00,211.00 74.00,211.00
             74.00,211.00 74.00,192.00 74.00,192.00
             74.00,192.00 67.00,192.00 67.00,192.00
             67.00,192.00 82.15,171.00 82.15,171.00
             82.15,171.00 90.51,160.99 90.51,160.99
             90.51,160.99 98.00,160.00 98.00,160.00
             98.00,160.00 152.00,160.00 152.00,160.00
             152.00,160.00 152.00,129.00 152.00,129.00
             152.05,125.29 152.17,121.50 155.39,119.01
             158.92,116.28 166.59,117.00 171.00,117.00
             171.00,117.00 171.00,106.00 171.00,106.00 Z
           M 86.00,171.00
           C 86.00,171.00 85.00,171.00 85.00,171.00
             85.00,171.00 86.00,172.00 86.00,172.00
             86.00,172.00 86.00,171.00 86.00,171.00 Z" />
  <path id="Wheels"
        fill="none" stroke="black" stroke-width="1"
        d="M 84.00,217.53
           C 84.00,217.53 113.00,217.00 113.00,217.00
             113.00,217.00 166.00,217.00 166.00,217.00
             166.00,217.00 330.00,217.00 330.00,217.00
             330.00,217.00 356.00,217.00 356.00,217.00
             370.41,217.00 381.48,215.09 392.24,227.09
             395.30,230.50 397.40,233.60 398.78,238.00
             400.09,242.18 400.05,245.69 400.00,250.00
             399.76,270.28 382.31,279.97 364.00,280.00
             364.00,280.00 96.00,280.00 96.00,280.00
             86.77,279.99 77.57,278.32 70.51,271.84
             52.09,254.93 58.20,225.16 84.00,217.53 Z
           M 390.00,226.00
           C 390.00,226.00 389.00,226.00 389.00,226.00
             389.00,226.00 390.00,227.00 390.00,227.00
             390.00,227.00 390.00,226.00 390.00,226.00 Z
           M 167.00,235.00
           C 167.00,235.00 166.00,235.00 166.00,235.00
             166.00,235.00 167.00,236.00 167.00,236.00
             167.00,236.00 167.00,235.00 167.00,235.00 Z
           M 94.00,236.36
           C 77.82,240.97 82.45,262.70 99.00,259.77
             106.47,258.45 110.20,249.63 106.83,243.00
             104.14,237.72 99.58,235.96 94.00,236.36 Z
           M 132.00,236.33
           C 117.54,239.95 120.04,258.68 133.00,259.89
             148.22,261.31 147.83,245.15 143.57,240.21
             140.38,236.52 136.55,235.94 132.00,236.33 Z
           M 170.00,236.40
           C 156.11,240.89 159.27,258.74 171.00,259.89
             189.60,261.71 189.17,234.26 170.00,236.40 Z
           M 209.00,236.34
           C 192.39,240.42 198.08,262.94 214.00,259.72
             222.52,258.00 225.72,246.71 220.35,240.22
             217.41,236.67 213.31,236.06 209.00,236.34 Z
           M 247.00,236.35
           C 231.91,240.72 235.80,258.70 248.00,259.89
             262.51,261.31 263.09,245.45 258.57,240.21
             255.39,236.52 251.55,235.92 247.00,236.35 Z
           M 285.00,236.40
           C 270.77,240.97 274.53,258.77 286.00,259.89
             300.65,261.32 304.66,243.08 293.00,237.31
             290.17,235.92 287.99,236.06 285.00,236.40 Z
           M 324.00,236.36
           C 307.41,241.09 313.16,262.98 329.00,259.72
             341.99,257.06 341.16,235.13 324.00,236.36 Z
           M 361.00,236.43
           C 348.13,241.54 349.68,258.39 363.00,260.38
             375.61,262.27 382.81,243.74 369.98,237.31
             367.00,235.82 364.17,235.98 361.00,236.43 Z
           M 182.00,238.00
           C 182.00,238.00 181.00,238.00 181.00,238.00
             181.00,238.00 182.00,239.00 182.00,239.00
             182.00,239.00 182.00,238.00 182.00,238.00 Z
           M 222.00,258.00
           C 222.00,258.00 221.00,258.00 221.00,258.00
             221.00,258.00 222.00,259.00 222.00,259.00
             222.00,259.00 222.00,258.00 222.00,258.00 Z
           M 243.00,260.00
           C 243.00,260.00 242.00,260.00 242.00,260.00
             242.00,260.00 243.00,261.00 243.00,261.00
             243.00,261.00 243.00,260.00 243.00,260.00 Z
           M 378.00,272.00
           C 378.00,272.00 377.00,272.00 377.00,272.00
             377.00,272.00 378.00,273.00 378.00,273.00
             378.00,273.00 378.00,272.00 378.00,272.00 Z" />
</svg>
